<svg width="192" height="56" viewBox="0 0 192 56" fill="none" xmlns="http://www.w3.org/2000/svg">
<path d="M0.8 15.2H16L22.4 32.64L28.8 15.2H44V48.8H31.6V31.32L26.2 48.8H18.6L13.2 31.32V48.8H0.8V15.2ZM59.2047 15.2V48.8H45.6047V15.2H59.2047ZM80.4 49.6C68.28 49.6 60.4 42.6 60.4 32C60.4 21.4 68.28 14.4 80.4 14.4C90.92 14.4 97.76 19.6 99.56 27.8L86.28 30.92C85.84 28.52 83.8 26.4 80.4 26.4C76.52 26.4 74.48 29.16 74.44 32C74.4 34.84 76.52 37.6 80.4 37.6C83.84 37.6 85.88 35.44 86.32 33L99.56 36.12C97.8 44.36 90.92 49.6 80.4 49.6ZM114.581 48.8H101.581V15.2H114.581V26.2H125.381V15.2H138.381V48.8H125.381V37H114.581V48.8ZM153.58 15.2V48.8H139.98V15.2H153.58ZM155.175 48.8V15.2H169.175L177.975 31.4V15.2H190.375V48.8H176.375L167.575 32.6V48.8H155.175Z" fill="#EFE5E5"/>
<path d="M152.44 24.0564L145.72 26.0164L140.96 24.0564" stroke="#D42D2D" stroke-width="0.56"/>
<path d="M111 22.9364C115.107 24.3364 126.848 26.4644 140.96 23.7764" stroke="#D42D2D" stroke-width="0.56"/>
<path d="M183.24 27.6964C178.48 28.8164 165.656 29.6564 152.44 24.0564" stroke="#D42D2D" stroke-width="0.56"/>
<path d="M111 22.9364C114.453 31.9897 125.616 50.6004 142.64 52.6164C163.92 55.1364 177.64 39.1764 183.24 27.9764" stroke="#D42D2D" stroke-width="0.56"/>
<path fill-rule="evenodd" clip-rule="evenodd" d="M113.901 25.5207C118.366 31.6839 126.834 39.098 138.184 41.8913C149.779 44.745 164.34 42.7657 180.653 29.7879C180.799 29.7397 180.945 29.6909 181.09 29.6416L180.91 29.1113C180.804 29.1471 180.699 29.1826 180.593 29.2179L180.545 29.1579C180.491 29.2012 180.437 29.2444 180.383 29.2875C168.033 33.354 154.482 33.5172 142.506 32.0455C130.598 30.5821 120.268 27.5047 114.261 25.0629C114.183 24.9535 114.105 24.8445 114.029 24.736L113.571 25.0569C113.628 25.1396 113.687 25.2227 113.746 25.3059L113.693 25.4351C113.762 25.4636 113.831 25.4921 113.901 25.5207ZM114.895 25.9179C119.423 31.8417 127.564 38.7008 138.318 41.3475C149.445 44.0861 163.409 42.3248 179.123 30.2731C167.061 33.9304 154.001 34.0223 142.438 32.6013C131.02 31.1981 121.042 28.3173 114.895 25.9179Z" fill="#D42D2D"/>
<path d="M178.807 22.2014C178.807 21.96 178.526 22.5731 178.404 22.649C177.78 23.039 178.427 23.3553 178.706 23.5105C179.686 24.0549 179.874 22.4431 179.21 22.0001" stroke="#211C1C" stroke-width="1.68" stroke-linecap="round"/>
<path d="M112.108 23.8091C112.005 23.7191 112.259 24.3955 112.303 24.479C112.486 24.8293 112.668 25.1693 112.874 25.507C113.005 25.723 113.108 26.2539 113.331 26.3652" stroke="#D42D2D" stroke-width="1.68" stroke-linecap="round"/>
<path d="M113.219 25.1428C113.219 25.365 113.216 25.5874 113.219 25.8096C113.227 26.3385 113.523 26.8821 113.707 27.3717C113.937 27.9815 114.216 28.5926 114.565 29.1437C114.864 29.6152 115.272 30.0017 115.553 30.4897C115.918 31.1219 116.322 31.7327 116.72 32.342C117.336 33.2839 118.158 34.0805 118.832 34.9784" stroke="#D42D2D" stroke-width="1.68" stroke-linecap="round"/>
<path d="M114.053 26.4208C114.05 26.3906 113.996 26.3104 114.01 26.356C114.089 26.6138 114.346 26.854 114.51 27.0568C114.934 27.5831 115.325 28.1373 115.803 28.6158C116.194 29.0066 116.522 29.3904 116.831 29.8537C117.234 30.4578 117.771 30.885 118.264 31.4158C119.066 32.2812 119.719 33.2644 120.579 34.08C121.59 35.0383 122.698 35.9256 123.611 36.9789" stroke="#D42D2D" stroke-width="1.68" stroke-linecap="round"/>
<path d="M117.387 31.422C117.29 31.4342 117.34 31.5685 117.368 31.6257C117.741 32.3702 118.433 33.0217 119.017 33.5953C120.407 34.9601 121.91 36.203 123.382 37.4759C124.632 38.5566 125.905 39.6125 127.152 40.6958C128.126 41.5425 128.95 42.6184 130.001 43.3693" stroke="#D42D2D" stroke-width="1.68" stroke-linecap="round"/>
<path d="M121.11 36.2565C120.798 35.9446 120.408 35.7226 120.042 35.4785C119.873 35.3657 119.481 35.0453 119.276 35.034C119.192 35.0293 119.104 35.0438 119.02 35.0309C118.962 35.0219 118.602 34.9356 118.622 34.9784C118.907 35.5849 119.357 36.1245 119.727 36.6794C120.277 37.5048 121.138 38.0065 121.829 38.6984C121.988 38.8569 122.12 39.0399 122.277 39.2016C122.584 39.5164 122.881 39.76 123.237 40.029C123.825 40.4728 124.372 40.9628 124.892 41.483C125.636 42.2267 126.582 42.7762 127.414 43.4125C128.633 44.345 129.961 45.0077 131.279 45.7711C132.305 46.365 129.413 44.3047 128.427 43.6471C126.98 42.6823 125.387 41.7341 124.383 40.2698C123.777 39.3872 123.281 38.498 122.524 37.726C122.41 37.6101 122.28 37.374 122.089 37.374C122.05 37.374 122.068 37.3963 122.089 37.4234C122.265 37.6485 122.533 37.8416 122.746 38.0223C124.196 39.2523 125.627 40.503 127.068 41.7423C128.598 43.0575 130.158 44.3397 131.81 45.4994C131.93 45.5835 132.081 45.6443 132.187 45.7464C132.471 46.0187 131.549 45.2859 131.242 45.0394C130.094 44.116 128.943 43.1963 127.797 42.2702C126.583 41.2896 125.376 40.3232 124.339 39.1522C124.045 38.8201 123.741 38.465 123.518 38.0779C123.358 37.7987 124.127 38.3012 124.401 38.47C126.029 39.4715 127.663 40.4675 129.273 41.4984C130.261 42.1311 131.299 42.7516 132.23 43.468C133.028 44.0819 130.519 42.4065 129.668 41.8689C128.834 41.3421 128.008 40.8075 127.195 40.2482C126.771 39.9562 126.173 39.6635 125.84 39.251C125.662 39.0312 126.409 39.3131 126.67 39.4208C127.682 39.8378 128.639 40.3774 129.606 40.8872C129.738 40.9569 130.131 41.1718 129.995 41.1095C129.321 40.8 128.707 40.3147 128.109 39.887C127.339 39.3364 126.586 38.7624 125.83 38.1921C125.544 37.9761 124.848 37.617 124.685 37.2505C124.646 37.1625 125.08 37.2813 125.08 37.2814C125.513 37.4177 125.921 37.6666 126.29 37.9266C126.41 38.0108 126.433 38.0531 126.293 37.9482C125.903 37.6554 125.501 37.3998 125.074 37.1641C124.686 36.95 124.324 36.6774 123.944 36.4664C123.7 36.3309 123.565 36.0445 123.333 35.8953C122.749 35.52 122.237 35.0433 121.694 34.6203C121.224 34.2551 120.73 33.895 120.233 33.5583C120.01 33.4068 119.738 33.2026 119.542 33.0211C119.44 32.927 119.309 32.8702 119.196 32.7896C118.983 32.637 119.509 33.2137 119.696 33.3978C120.603 34.2898 121.59 35.1214 122.611 35.8798C122.632 35.8957 122.895 36.0595 122.796 35.9694C122.502 35.7021 122.295 35.3397 122.064 35.0216C121.569 34.3411 120.904 33.8273 120.311 33.2342C120.172 33.0951 119.576 32.3003 119.443 32.3667" stroke="#D42D2D" stroke-width="1.68" stroke-linecap="round"/>
<path d="M121.11 38.0903C121.145 38.4354 121.657 38.7715 121.9 38.9794C122.32 39.3379 122.639 39.7601 123.003 40.1772C123.388 40.619 123.881 40.9369 124.265 41.3688C124.503 41.6363 124.753 41.9093 124.997 42.1684C125.219 42.4044 125.386 42.6938 125.614 42.9217C126.026 43.3334 126.553 43.7106 127.044 44.0238C127.507 44.3194 127.88 44.7691 128.334 45.0888C129.131 45.6496 129.97 46.1525 130.89 46.4811" stroke="#D42D2D" stroke-width="1.68" stroke-linecap="round"/>
<path d="M123.611 40.9242C123.422 40.836 123.685 41.0939 123.716 41.128C123.975 41.4171 124.251 41.6923 124.512 41.98C124.893 42.3995 125.315 42.768 125.803 43.0605C126.386 43.4104 126.831 43.8199 127.278 44.3139C127.814 44.9057 128.225 45.4318 128.936 45.8112C129.451 46.086 129.924 46.4062 130.433 46.7034C131.42 47.2789 132.488 47.9685 133.656 48.0308C134.206 48.0601 134.758 48.0246 135.308 48.0401C135.431 48.0436 136.083 48.061 136.08 48.0586C135.775 47.8103 135.396 47.6084 135.07 47.3949C134.007 46.6982 132.944 46.0038 131.869 45.3265C130.339 44.3628 128.675 43.5063 127.229 42.4122C126.977 42.2218 127.276 42.2723 127.439 42.2949C128.419 42.4311 129.402 42.6838 130.341 42.9926C131.574 43.3984 132.743 43.9324 133.872 44.5701C134.293 44.8078 134.855 45.0944 135.218 45.4438C135.283 45.5065 135.058 45.5557 134.968 45.5488C134.558 45.5172 134.149 45.444 133.743 45.3821C133.185 45.297 132.872 45.1533 132.508 45.6198C131.976 46.3014 132.901 46.6221 133.44 46.8917C134.474 47.4087 135.539 47.4085 136.669 47.5924" stroke="#D42D2D" stroke-width="1.68" stroke-linecap="round"/>
<path d="M136.836 47.3702C136.79 47.3176 136.97 47.3208 137.04 47.3208C137.7 47.3208 138.364 47.387 139.019 47.4628C140.096 47.5875 141.222 47.7005 142.276 47.9691C142.333 47.9837 142.496 48.0494 142.445 48.0185C142.061 47.7822 141.681 47.5493 141.285 47.3331C139.557 46.3921 137.784 45.5307 135.972 44.7646C135.379 44.514 134.866 44.3135 134.274 44.1009C134.133 44.0504 133.749 43.883 134.082 44.1009C134.912 44.6442 135.786 45.1255 136.632 45.6414C137.07 45.9078 138.322 46.4939 137.824 46.6107C137.384 46.7139 136.846 46.6478 136.401 46.6478C136.128 46.6478 135.855 46.6478 135.583 46.6478C135.526 46.6478 135.368 46.6286 135.413 46.6632C135.627 46.8279 136.038 46.9844 136.256 47.0985C137.124 47.5541 137.994 48.0012 138.892 48.3951C139.049 48.464 139.507 48.6924 139.367 48.5927C139.112 48.41 138.806 48.2565 138.54 48.0926C136.525 46.8506 134.478 45.6652 132.369 44.5887C131.863 44.3303 131.352 44.085 130.841 43.8385C130.672 43.7572 130.722 43.7233 130.903 43.715C132.035 43.6631 133.172 44.0432 134.255 44.3201C134.346 44.3433 134.61 44.4395 134.524 44.4034C133.978 44.1759 133.45 43.6714 132.986 43.3291C132.146 42.7083 131.226 42.1405 130.421 41.4737C130.213 41.3013 130.878 41.7636 131.097 41.9214C133.445 43.6095 135.743 45.368 138.034 47.1325C138.955 47.8419 139.878 48.5526 140.781 49.2842C140.935 49.4083 141.433 49.825 140.825 49.4694C138.749 48.2567 136.746 46.9126 134.706 45.6414C134.383 45.4403 133.403 44.8584 133.743 45.0301C135.161 45.7483 134.496 45.4618 136.262 46.2773C137.665 46.9256 139.088 47.5292 140.525 48.0988C141.685 48.5585 140.153 48.0873 140.087 48.071C138.659 47.7172 137.216 47.2719 135.749 47.1047C135.736 47.1032 135.172 46.9992 135.172 47.1479C135.172 47.4008 135.777 47.7802 135.938 47.895C136.61 48.3751 137.415 48.8394 138.234 49.0033C138.617 49.0798 138.578 48.9896 138.312 48.6668C137.198 47.3161 135.848 46.1336 134.388 45.1721C134.006 44.9208 133.613 44.6871 133.23 44.4374C133.18 44.4048 133.041 44.3159 133.101 44.3139C133.4 44.3038 133.698 44.3644 133.996 44.4003C135.672 44.6026 137.326 44.9077 138.985 45.2154C139.376 45.2879 139.777 45.4838 140.164 45.3944C140.372 45.3464 139.922 45.0353 139.756 44.9005C138.85 44.1624 137.879 43.4894 136.892 42.866C136.301 42.4931 136.002 42.3289 135.425 42.0202C135.28 41.9425 134.829 41.7738 134.993 41.7824C135.437 41.8058 136.276 42.2782 136.62 42.4307C137.753 42.9328 138.867 43.476 139.973 44.0361C141.87 44.9978 135.862 42.9136 133.872 42.1591C133.292 41.939 134.194 42.1891 134.317 42.2393C135.12 42.5683 136.012 43.0068 136.709 43.5298C137.017 43.7604 136.111 43.5209 136.077 43.5112C134.892 43.1823 133.717 42.675 132.613 42.1467" stroke="#D42D2D" stroke-width="1.68" stroke-linecap="round"/>
<path d="M123.722 35.8119C123.675 35.737 123.81 35.7628 123.845 35.7687C124.128 35.8158 124.374 36.0101 124.602 36.17C124.907 36.3845 125.178 36.6252 125.401 36.9233C125.63 37.2286 125.863 37.5484 126.204 37.7321C126.722 38.0111 127.264 38.2808 127.711 38.6583C128.112 38.9977 128.519 39.2457 128.986 39.4856C129.342 39.6692 129.707 39.838 130.063 40.0228C130.217 40.103 130.363 40.2474 130.526 40.3068C131.053 40.4985 131.562 40.7529 132.082 40.949C132.598 41.1435 133.144 41.3362 133.644 41.5633C133.983 41.7172 134.377 41.72 134.725 41.8689" stroke="#D42D2D" stroke-width="1.68" stroke-linecap="round"/>
<path d="M127.223 37.8679C127.518 37.8679 127.685 38.0366 127.917 38.1982C128.275 38.4472 128.697 38.5451 129.053 38.8126C129.689 39.2896 130.41 39.5758 131.082 40.0042C131.414 40.2166 131.806 40.3403 132.131 40.563C132.535 40.8395 133.125 40.8944 133.595 41.0569C134.21 41.2699 134.808 41.3782 135.391 41.7022" stroke="#D42D2D" stroke-width="1.68" stroke-linecap="round"/>
<path d="M138.336 48.0926C141.536 48.0926 144.735 48.0926 147.934 48.0926C148.727 48.0926 149.519 48.0926 150.312 48.0926C150.358 48.0926 150.729 48.1067 150.592 48.0833C149.896 47.9639 149.213 47.7652 148.539 47.5554C146.097 46.7953 143.687 45.9331 141.248 45.1629C139.433 44.5901 137.605 44.0608 135.802 43.4526C135.22 43.2562 134.515 42.9143 135.805 43.3631C138.508 44.3033 141.154 45.4277 143.791 46.5367C144.334 46.7649 144.998 47.0412 145.551 47.3116C145.655 47.3623 145.937 47.4767 145.829 47.5184C145.157 47.7785 143.056 47.0192 143.671 47.3949C144.906 48.1498 146.434 48.5832 147.823 48.9416C148.37 49.0825 148.947 49.1561 149.484 49.3306C149.594 49.3663 148.832 49.2014 148.82 49.1978C146.477 48.4536 144.176 47.5617 141.837 46.796C141.361 46.64 140.822 46.522 140.368 46.3021C140.112 46.1782 140.94 46.2974 141.22 46.3453C143.871 46.7976 146.435 47.6474 149.058 48.2254C149.083 48.2309 149.234 48.2588 149.28 48.284C149.302 48.2956 149.237 48.3105 149.212 48.3118C148.555 48.3455 147.885 48.3149 147.227 48.3149C146.544 48.3149 145.84 48.2724 145.156 48.318C145.042 48.3256 145.382 48.3508 145.496 48.3643C146.244 48.4531 146.403 48.4785 147.261 48.5989C149.452 48.906 151.642 49.2106 153.837 49.4787C157.623 49.9412 152.699 49.336 155.236 49.6424C155.403 49.6626 155.88 49.6297 155.736 49.7164C155.693 49.7419 155.636 49.7167 155.587 49.7103C155.056 49.6407 154.485 49.5275 153.97 49.4201C152.088 49.0278 150.222 48.5619 148.345 48.1482C147.454 47.9518 146.556 47.7895 145.665 47.5925C145.506 47.5571 145.989 47.5375 146.153 47.5369C147.443 47.5322 148.734 47.5571 150.024 47.5369C150.079 47.5361 149.935 47.47 149.882 47.4567C148.909 47.2102 147.903 47.0606 146.913 46.901C146.04 46.7603 146.314 46.8117 145.567 46.7034C145.394 46.6785 145.153 46.7476 145.054 46.6046C144.956 46.4633 145.395 46.554 145.567 46.549C146.361 46.5263 147.155 46.5246 147.95 46.512C150.18 46.4765 152.414 46.4554 154.643 46.3576C154.799 46.3508 155.679 46.3021 155.909 46.2835C156.028 46.2739 156.235 46.2607 155.989 46.2341C153.142 45.9263 150.24 46.0366 147.382 46.0366C146.911 46.0366 146.439 46.0366 145.968 46.0366C145.672 46.0366 146.561 46.0366 146.857 46.0366C148.458 46.0366 150.072 46.0959 151.673 46.0366C152.65 46.0004 149.718 45.9817 148.74 45.944C146.725 45.8662 144.706 45.794 142.696 45.6352C142.368 45.6094 141.745 45.5494 141.393 45.5056C141.276 45.4911 140.939 45.4834 141.047 45.4377C141.184 45.3799 141.343 45.4258 141.492 45.4253C142.025 45.4235 142.558 45.4253 143.091 45.4253C144.496 45.4253 145.902 45.4294 147.308 45.4253C147.367 45.4251 147.886 45.4243 147.999 45.413C148.042 45.4086 147.931 45.3521 147.888 45.345C145.818 45.0059 143.708 44.9426 141.621 44.7585C141.448 44.7432 140.937 44.6899 141.109 44.6597C141.621 44.5693 142.225 44.6479 142.739 44.6597C143.188 44.67 143.704 44.6406 144.146 44.7585C144.375 44.8195 143.674 44.7087 143.443 44.6597C142.01 44.3567 140.596 43.9762 139.17 43.6471" stroke="#D42D2D" stroke-width="1.68" stroke-linecap="round"/>
<path d="M137.058 42.2579C136.808 42.2301 137.294 42.21 137.342 42.2146C137.791 42.2571 138.253 42.3544 138.642 42.5913C139.002 42.8104 139.422 43.0622 139.831 43.1717C141.614 43.6489 143.412 44.0432 145.227 44.3942C147.229 44.7813 149.292 45.1474 151.339 45.1474" stroke="#D42D2D" stroke-width="1.68" stroke-linecap="round"/>
<path d="M139.614 43.147C139.322 43.147 140.199 43.147 140.491 43.147C140.698 43.147 140.869 43.1752 141.059 43.2705C141.597 43.5395 139.756 43.2821 139.293 42.8969C139.149 42.7763 139.669 42.939 139.852 42.9834C140.433 43.1241 141.019 43.2417 141.603 43.3662C141.984 43.4475 142.333 43.5279 142.692 43.6687C142.786 43.7052 142.904 43.7477 143.004 43.7582C143.176 43.7764 143.31 43.8653 143.492 43.8694C143.986 43.8803 144.482 43.9616 144.977 43.9836C146.006 44.0293 147.017 44.3139 148.055 44.3139C148.167 44.3139 149.181 44.3836 149.203 44.1596C149.22 43.9869 146.445 44.0361 146.283 44.0361C145.686 44.0361 145.088 44.049 144.492 44.0361C144.218 44.0301 143.952 43.9238 143.683 43.8817C143.293 43.8207 142.857 43.8533 142.479 43.7274C142.167 43.6231 142.282 43.6584 142.547 43.644C142.992 43.6199 143.451 43.536 143.893 43.536C144.45 43.536 145.007 43.536 145.563 43.536C146.193 43.536 146.795 43.6565 147.419 43.6996C148.082 43.7453 148.737 43.7582 149.407 43.7582C150.217 43.7582 151.098 43.8664 151.898 43.7521C152.425 43.6768 152.919 43.4459 153.457 43.4279C153.928 43.4122 154.407 43.4587 154.874 43.3909C155.129 43.3538 155.366 43.2446 155.618 43.2025" stroke="#D42D2D" stroke-width="1.68" stroke-linecap="round"/>
<path d="M150.506 43.3137C150.89 43.3137 151.276 43.3265 151.66 43.3137C151.902 43.3056 152.148 43.1969 152.383 43.147C152.802 43.0578 153.267 43.0078 153.695 42.9834C154.18 42.9556 154.71 43.0317 155.183 42.8938C156.034 42.6457 156.91 42.494 157.785 42.369" stroke="#D42D2D" stroke-width="1.68" stroke-linecap="round"/>
<path d="M144.06 43.3692C143.893 43.3692 143.726 43.3692 143.56 43.3692C143.275 43.3692 143.057 43.2952 142.785 43.2612C142.576 43.2351 142.41 43.0358 142.226 43.0358" stroke="#D42D2D" stroke-width="1.68" stroke-linecap="round"/>
<path d="M138.725 47.1479C138.682 47.1479 138.639 47.1479 138.596 47.1479C138.384 47.1479 139.016 47.1935 139.225 47.222C141.525 47.5356 143.841 47.8586 146.165 47.8703C146.467 47.8719 146.977 47.8318 146.332 47.963C144.208 48.395 142.015 48.6518 139.858 48.8675C139.793 48.874 139.963 48.9467 140.022 48.9755C140.602 49.2606 141.203 49.4983 141.806 49.7288C142.857 50.1304 143.917 50.5077 144.977 50.8865C145.256 50.9863 145.53 51.0942 145.823 51.1458C146.186 51.2098 146.549 51.2605 146.916 51.3156C147.108 51.3445 148.124 51.6882 147.734 51.2353C147.051 50.4432 146.051 49.8331 145.097 49.4324C145.004 49.3931 144.819 49.3196 144.708 49.2843C144.672 49.2727 144.597 49.2216 144.597 49.2596C144.597 49.3165 144.708 49.2844 144.764 49.2966C145.082 49.3662 145.498 49.4591 145.795 49.5251C146.867 49.7632 147.936 50.0148 149.012 50.2351C149.207 50.275 149.404 50.3035 149.598 50.3462C149.737 50.3767 149.528 50.3711 149.524 50.3709C147.672 50.2822 145.77 49.8137 143.983 49.3306C143.852 49.2951 144.062 49.3164 144.097 49.312C144.228 49.2956 143.847 49.2252 143.717 49.1978C143.329 49.1156 142.936 49.053 142.55 48.9601C142.432 48.9317 142.231 48.8768 142.535 48.8768C146.173 48.8768 149.76 49.593 153.395 49.593" stroke="#D42D2D" stroke-width="1.68" stroke-linecap="round"/>
<path d="M130.446 47.0923C130.668 47.0923 130.971 47.4378 131.168 47.5647C131.39 47.7075 131.6 47.8395 131.835 47.9567C132.102 48.0902 132.428 48.0901 132.696 48.2346C133.091 48.4474 133.556 48.5923 133.974 48.7594C135.592 49.4067 137.251 49.7681 138.994 49.8677C140.064 49.9289 141.154 49.9072 142.22 50.0097C142.26 50.0136 142.859 50.0245 142.868 50.1054C142.886 50.2688 139.598 50.1023 139.435 50.0869C138.535 50.0018 137.585 49.8881 136.706 49.6485C136.477 49.586 136.215 49.5601 136.002 49.454C135.672 49.2888 135.285 49.2391 134.922 49.2009C134.488 49.1552 134.053 49.0885 133.619 49.0403C133.394 49.0154 134.12 49.1328 134.218 49.1731C134.685 49.3659 135.132 49.6703 135.607 49.8337C135.999 49.9683 136.427 50.1493 136.839 50.2042C137.36 50.2736 137.909 50.316 138.42 50.4296C138.819 50.5184 139.267 50.7158 139.664 50.8432C140.089 50.9798 140.506 51.0426 140.945 51.1211C141.99 51.3077 143.011 51.3952 144.035 51.7045C144.674 51.8974 145.388 51.8157 146.048 51.8157C146.382 51.8157 146.712 51.9175 147.03 51.9268C147.458 51.9394 146.528 51.9779 146.468 51.9793C145.618 51.9986 144.818 51.9538 143.98 51.8404C143.604 51.7896 143.243 51.7197 142.871 51.649C142.748 51.6256 142.56 51.6308 142.448 51.5811C142.163 51.454 141.769 51.4038 141.461 51.3156C140.968 51.1749 140.47 51.1376 139.979 51.0254C139.327 50.8765 138.604 50.6487 137.935 50.6487C137.778 50.6487 138.199 50.6656 138.253 50.6796C138.519 50.7485 138.807 50.8618 139.059 50.9698C139.324 51.0833 139.632 51.1128 139.88 51.26C140.117 51.4002 140.472 51.4981 140.738 51.5502C140.933 51.5883 141.147 51.5626 141.334 51.6212C141.67 51.7262 141.172 51.6186 141.078 51.5996C140.31 51.4441 139.522 51.2211 138.793 50.9297C138.58 50.8442 138.304 50.7133 138.071 50.7043C137.924 50.6987 137.511 50.7768 137.447 50.6487" stroke="#D42D2D" stroke-width="1.68" stroke-linecap="round"/>
<path d="M146.838 51.5379C147.159 51.5379 147.344 51.7077 147.616 51.8589C147.917 52.0257 148.253 51.9824 148.589 51.9824C149.594 51.9824 150.607 52.056 151.58 51.7848C152.259 51.5957 152.974 51.7151 153.661 51.5934C154.165 51.5041 154.641 51.3246 155.137 51.2168C155.637 51.1081 156.237 51.0896 156.708 50.8957C157.319 50.6443 157.92 50.3324 158.48 49.9789C158.823 49.7622 159.229 49.6423 159.591 49.454C160.21 49.1323 160.75 48.6959 161.397 48.426" stroke="#D42D2D" stroke-width="1.68" stroke-linecap="round"/>
<path d="M149.006 50.5932C149.689 50.5932 150.372 50.5932 151.055 50.5932C151.319 50.5932 151.603 50.6243 151.864 50.5808C152.696 50.4423 153.526 49.9565 154.319 49.6794C155.162 49.3844 156.023 49.2168 156.881 48.9786C157.668 48.76 158.451 48.4731 159.212 48.179C160.008 47.8712 160.814 47.4722 161.62 47.2035" stroke="#D42D2D" stroke-width="1.68" stroke-linecap="round"/>
<path d="M159.008 48.1481C158.831 48.2046 158.654 48.1909 158.477 48.2408C158.089 48.3503 157.735 48.7292 157.403 48.9446C157.03 49.1861 156.694 49.3913 156.251 49.4571C155.822 49.5208 155.393 49.5791 154.964 49.6423C154.458 49.7169 154.631 49.6054 155.041 49.3706C156.023 48.809 157.047 48.3194 158.076 47.8518C158.729 47.5547 159.296 47.3152 159.953 47.0553C160.125 46.9872 160.334 46.9815 160.471 46.8577C160.526 46.8089 160.338 46.7972 160.268 46.7774C160.096 46.7291 159.736 46.6436 159.576 46.6169C158.473 46.4331 157.305 46.4313 156.193 46.4873C154.638 46.5655 153.153 47.012 151.704 47.5554C151.461 47.6464 151.755 47.6427 151.846 47.6449C152.582 47.6633 153.32 47.648 154.056 47.648C154.542 47.648 155.028 47.648 155.513 47.648C155.914 47.648 155.484 47.648 155.359 47.648C154.028 47.648 152.698 47.648 151.367 47.648C151.167 47.648 151.769 47.6507 151.969 47.648C153.255 47.6308 154.535 47.5276 155.816 47.4196C156.375 47.3724 156.937 47.3334 157.495 47.2714C157.9 47.2264 156.686 47.3644 156.285 47.4381C155.419 47.5977 154.384 47.8482 153.633 48.3365C153.502 48.4215 153.937 48.4258 154.093 48.4229C154.776 48.4101 155.402 48.354 156.051 48.1481C156.135 48.1212 156.217 48.0971 156.285 48.037C156.854 47.531 157.49 47.1322 158.137 46.7281C158.627 46.4225 159.122 46.1272 159.616 45.8297C160.069 45.5571 160.536 45.3079 160.978 45.0178C161.179 44.8851 161.464 44.7924 161.543 44.564C161.584 44.4421 161.304 44.4415 161.175 44.4436C160.705 44.4509 160.239 44.531 159.774 44.5917C158.047 44.817 156.861 45.0282 155.121 45.3543C154.178 45.5311 151.365 46.1376 152.29 45.8822C153.744 45.4808 155.21 45.1346 156.631 44.6226C157.132 44.442 157.629 44.2406 158.122 44.0391C158.152 44.0267 158.417 43.9392 158.221 43.928C156.892 43.8521 155.538 43.9249 154.207 43.9249C153.887 43.9249 152.927 43.9249 153.247 43.9249C154.001 43.9249 154.754 43.9231 155.507 43.9002C157.536 43.8386 159.545 43.6468 161.552 43.3507C161.708 43.3277 161.874 43.3089 161.58 43.3168C160.801 43.3375 160.034 43.4424 159.27 43.5977C156.648 44.131 154.057 44.9016 151.463 45.5611C148.746 46.2519 156.982 44.5593 159.712 43.9187C160.169 43.8116 159.527 43.8272 159.49 43.8261C158.638 43.8016 157.784 43.8322 156.933 43.857C156.742 43.8626 156.548 43.8511 156.359 43.8817C156.298 43.8917 156.476 43.9304 156.538 43.9373C157.518 44.0451 158.512 44.0271 159.496 44.0484C159.895 44.057 160.295 44.0642 160.694 44.0916C161.057 44.1167 160.682 44.2023 160.555 44.2398C159.793 44.464 158.815 44.8569 158.301 45.4994C158.28 45.5257 158.249 45.6123 158.279 45.5982C158.712 45.3987 159.125 45.1444 159.551 44.9313C160.097 44.6587 160.691 44.2961 161.286 44.1472" stroke="#D42D2D" stroke-width="1.68" stroke-linecap="round"/>
<path d="M158.008 42.4246C158.43 42.4246 158.852 42.4324 159.274 42.4246C159.895 42.4131 160.504 42.0529 161.052 41.8072C162.721 41.0576 164.476 40.5426 166.229 40.0259C166.915 39.8235 167.601 39.6111 168.3 39.4579C168.563 39.4003 168.822 39.362 169.066 39.2572" stroke="#D42D2D" stroke-width="1.68" stroke-linecap="round"/>
<path d="M162.342 43.4248C163.034 43.4248 163.731 43.4459 164.423 43.4125C166.285 43.3223 168.002 42.4384 169.597 41.5355C170.227 41.179 170.825 40.7718 171.375 40.3006C171.466 40.2229 171.51 40.128 171.622 40.0907" stroke="#D42D2D" stroke-width="1.68" stroke-linecap="round"/>
<path d="M162.398 43.147C162.298 43.147 162.595 43.1091 162.688 43.0729C163.919 42.5936 165.049 41.8149 166.164 41.1187C167.089 40.5408 168.03 40.0068 169.029 39.5659C169.405 39.3998 169.798 39.2606 170.146 39.038C170.223 38.9886 170.299 38.9421 170.39 38.9269C170.482 38.9116 170.375 38.9547 170.279 39.0164C169.223 39.6976 168.165 40.3778 167.102 41.0477C164.256 42.842 161.34 44.8649 158.147 46.0026C157.756 46.1417 157.601 46.185 157.242 46.2403C157.159 46.2531 156.955 46.3115 156.989 46.2341C157.081 46.0214 157.563 45.7405 157.717 45.6352C159.676 44.2989 161.867 43.2459 164.009 42.2425C165.14 41.7126 166.299 41.2683 167.473 40.844C167.59 40.8017 167.942 40.6938 167.819 40.7051C167.523 40.732 167.24 40.8181 166.96 40.915C165.77 41.327 164.604 41.8103 163.422 42.2455C162.624 42.5394 161.834 42.8484 161.048 43.1748C160.882 43.2441 160.756 43.2404 160.842 43.3693" stroke="#D42D2D" stroke-width="1.68" stroke-linecap="round"/>
<path d="M167.177 41.2021C167.342 41.2021 167.512 41.211 167.677 41.1897C167.9 41.1608 168.059 41.0614 168.239 40.9304C168.626 40.6477 169.023 40.3844 169.424 40.1216C170.53 39.3975 171.508 38.5827 172.468 37.6766C173.157 37.026 173.893 36.3624 174.706 35.8675C174.864 35.7716 175.037 35.7022 175.181 35.5866C175.225 35.5514 175.591 35.3427 175.401 35.4199C173.308 36.2668 171.365 37.4863 169.325 38.4545C168.938 38.6381 168.524 38.8254 168.177 39.0781C168.081 39.1477 168.136 39.1087 168.201 39.0658C168.43 38.9151 168.661 38.7687 168.887 38.6151C169.203 38.4001 169.509 38.1656 169.844 37.9791C169.917 37.9384 170.118 37.859 170.041 37.8248C169.916 37.7683 169.629 37.8553 169.51 37.8803C169.162 37.9535 168.849 38.1029 168.556 38.3033C168.056 38.6462 167.49 38.9264 166.951 39.2294C166.051 39.7358 165.169 40.286 164.194 40.6649C163.469 40.9469 162.774 41.1445 162.015 41.3132C161.522 41.4227 161.03 41.6664 160.552 41.8257C160.259 41.9231 159.952 42.0381 159.647 42.0912C159.452 42.125 159.292 42.2352 159.113 42.3135C158.942 42.3881 158.572 42.3994 158.508 42.5913" stroke="#D42D2D" stroke-width="1.68" stroke-linecap="round"/>
<path d="M165.732 39.924C165.682 39.5259 163.586 40.6807 163.367 40.7452C162.628 40.9626 161.982 41.3746 161.228 41.5633C160.786 41.6738 160.278 41.6696 159.869 41.8967C159.643 42.0221 159.314 42.1467 159.051 42.1467C158.824 42.1467 158.301 42.2415 158.285 42.5357C158.251 43.1885 159.081 43.8451 159.489 44.2275C159.803 44.5213 160.168 44.8223 160.551 45.024C160.844 45.178 161.325 45.0988 161.644 45.0888C162.682 45.0564 163.85 44.6944 164.694 44.07C164.88 43.9331 164.881 43.8986 164.608 44.0176C163.639 44.4398 162.731 44.9972 161.808 45.5086C161.352 45.7611 160.89 46.0012 160.434 46.2526C160.321 46.3151 160.125 46.3998 160.03 46.5027C159.977 46.56 161.065 46.3579 161.126 46.3391C162.173 46.0169 163.207 45.592 164.185 45.0981C164.555 44.911 165.665 44.4105 165.253 44.459C165.017 44.4868 164.638 44.742 164.454 44.8449C163.88 45.1651 163.335 45.5263 162.811 45.9223C162.401 46.2326 162.001 46.5618 161.613 46.9009C161.6 46.9124 161.339 47.0942 161.512 47.0831C162.272 47.034 163.08 46.6468 163.768 46.3545C164.102 46.2129 164.499 46.0772 164.806 45.8729C165.616 45.3328 163.131 46.8695 162.33 47.4227C162.062 47.6072 161.836 47.9355 161.601 48.1667C161.434 48.3307 161.242 48.4852 161.052 48.6174C160.904 48.7197 160.809 48.8955 160.65 48.9817C160.511 49.0572 160.173 49.3185 160.521 49.1052C160.899 48.8729 161.324 48.6354 161.728 48.4538C162.206 48.2384 162.581 47.9151 163.006 47.6233C163.329 47.4014 163.693 47.0495 164.065 46.9256" stroke="#D42D2D" stroke-width="1.68" stroke-linecap="round"/>
<path d="M162.509 47.9814C162.505 47.9814 162.82 47.9403 162.923 47.895C163.197 47.774 163.461 47.5298 163.67 47.3208C163.972 47.0185 164.335 46.6203 164.744 46.4687C165.3 46.2629 165.882 45.8494 166.377 45.5333C166.983 45.1465 167.42 44.5415 167.887 44.0052C168.289 43.5432 168.729 43.1173 169.121 42.6469" stroke="#D42D2D" stroke-width="1.68" stroke-linecap="round"/>
<path d="M165.898 43.9805C165.81 44.0815 166.612 43.8796 166.713 43.82C167.287 43.483 167.78 43.0054 168.343 42.6469" stroke="#D42D2D" stroke-width="1.68" stroke-linecap="round"/>
<path d="M160.73 48.9261C161.293 48.9261 161.816 48.8303 162.175 48.3427C162.588 47.7821 163.244 47.5335 163.842 47.2344C164.292 47.0093 164.669 46.6894 165.068 46.3978C165.689 45.944 166.377 45.556 167.096 45.2833C167.225 45.2345 167.449 45.0875 167.17 45.2092C167.001 45.2831 166.757 45.3763 166.621 45.5056C166.456 45.6624 166.284 45.8174 166.121 45.981C165.839 46.2625 165.518 46.4868 165.148 46.6231C164.688 46.7928 164.279 47.1378 163.811 47.2714C163.574 47.3391 162.872 47.6696 162.787 47.9259" stroke="#D42D2D" stroke-width="1.68" stroke-linecap="round"/>
<path d="M162.453 48.1482C163.095 48.1482 163.562 47.8948 164.052 47.5369C164.233 47.4047 164.356 47.2082 164.537 47.0677C164.686 46.9516 164.895 46.8605 165.065 46.7713C165.253 46.6723 165.425 46.5314 165.593 46.4008C165.853 46.1988 166.191 46.1034 166.454 45.9131C166.847 45.6295 167.254 45.3217 167.609 44.9931C167.783 44.8315 168.056 44.7851 168.266 44.672C168.488 44.5525 168.719 44.4388 168.899 44.2584C169.221 43.9361 169.599 43.6942 169.924 43.3693C170.13 43.1628 170.336 42.9733 170.511 42.7333C170.787 42.3538 171.16 42.1483 171.492 41.8319C171.906 41.4377 172.284 40.9747 172.733 40.6217C172.836 40.5411 172.845 40.4561 172.925 40.3562C173.157 40.0639 173.452 39.9517 173.789 39.8129" stroke="#D42D2D" stroke-width="1.68" stroke-linecap="round"/>
<path d="M171.677 39.7573C172.393 39.5923 173.035 38.9246 173.536 38.4298C174.237 37.7373 174.83 36.9376 175.484 36.2009C176.006 35.6126 176.511 34.7843 177.234 34.4227" stroke="#D42D2D" stroke-width="1.68" stroke-linecap="round"/>
<path d="M170.955 37.09C170.788 37.09 170.622 37.09 170.455 37.09C170.377 37.09 170.497 37.09 170.511 37.09C170.746 37.09 171.004 36.9453 171.202 36.8338C171.689 36.5592 172.188 36.1797 172.61 35.815C172.85 35.6072 173.036 35.4135 173.332 35.2994C173.683 35.1645 173.993 34.8397 174.326 34.6666C174.682 34.4818 174.992 34.3188 175.379 34.1973C175.644 34.1141 175.946 34.0222 176.179 33.867" stroke="#D42D2D" stroke-width="1.68" stroke-linecap="round"/>
<path d="M170.955 36.9789C170.757 36.9987 170.531 37.2041 170.39 37.3246C170.281 37.4183 169.904 37.66 169.899 37.8247C169.893 38.0501 170.433 38.1802 170.566 38.223C171.323 38.4662 172.098 38.5013 172.888 38.4792C173.574 38.46 174.171 37.9149 174.777 37.6457C174.872 37.6036 175.63 37.3949 175.419 37.6827C175.092 38.1287 174.791 38.487 174.388 38.8558C173.983 39.2268 173.628 39.6961 173.234 40.0907C172.968 40.3563 172.449 40.8402 173.045 40.103C173.732 39.2544 174.462 38.4418 175.216 37.6519C175.861 36.9751 176.574 36.3752 177.228 35.7131C177.593 35.3448 177.859 34.8079 178.124 34.3671" stroke="#D42D2D" stroke-width="1.68" stroke-linecap="round"/>
<path d="M175.567 37.5901C175.58 37.6765 176.07 37.3768 176.151 37.3123C176.367 37.1393 176.471 36.7207 176.568 36.4788" stroke="#D42D2D" stroke-width="1.68" stroke-linecap="round"/>
<path d="M180.25 30.7739C180.143 30.8302 180.061 30.9156 179.964 30.9855C179.809 31.0971 179.64 31.1757 179.503 31.3101C179.331 31.4771 179.161 31.6559 178.979 31.811C178.806 31.9587 178.617 32.0875 178.449 32.2414C178.208 32.4626 177.991 32.7088 177.752 32.9316C177.551 33.1182 177.327 33.2717 177.101 33.4243C176.866 33.5832 176.684 33.8086 176.47 33.9923C176.374 34.0749 176.276 34.1553 176.187 34.2451" stroke="#D42D2D" stroke-width="1.68" stroke-linecap="round"/>
<path d="M181.732 28.9536C181.67 29.0778 181.644 29.21 181.579 29.3345C181.427 29.6281 181.213 29.9022 180.97 30.1224C180.513 30.5363 180.271 31.093 179.955 31.6087C179.808 31.8495 179.667 32.1207 179.477 32.3296C179.292 32.5318 179.164 32.7778 178.988 32.9881C178.85 33.152 178.698 33.3027 178.55 33.4572C178.47 33.5407 178.418 33.6609 178.356 33.7571C178.174 34.0396 177.986 34.382 177.732 34.6049" stroke="#D42D2D" stroke-width="1.68" stroke-linecap="round"/>
<path d="M178.472 34.2663C178.487 34.1379 178.657 33.9869 178.726 33.8806C178.795 33.7761 178.827 33.6268 178.927 33.5466C178.967 33.515 178.965 33.4326 178.992 33.3902C179.036 33.3218 179.092 33.2571 179.138 33.1891C179.196 33.1045 179.284 32.9313 179.383 32.9116" stroke="#D42D2D" stroke-width="1.68" stroke-linecap="round"/>
<path d="M182.219 28.6572C182.219 28.5541 182.251 28.5111 182.303 28.4244" stroke="#D42D2D" stroke-width="1.68" stroke-linecap="round"/>
<path d="M179.764 29.1228C179.383 29.1228 178.243 29.1228 178.623 29.1228C179.222 29.1228 179.762 28.9678 180.335 28.8265C180.515 28.782 180.719 28.6995 180.907 28.6995" stroke="#D42D2D" stroke-width="1.68" stroke-linecap="round"/>
<path d="M176.631 29.7367C175.965 29.7367 175.302 29.6944 174.637 29.6944C174.574 29.6944 174.274 29.7407 174.223 29.6897C174.188 29.655 174.554 29.5629 174.587 29.5533C174.89 29.4659 175.19 29.4199 175.497 29.3557C175.765 29.2999 176.03 29.2275 176.303 29.1981C176.645 29.1613 176.983 29.1546 177.326 29.1029C177.636 29.0561 177.959 29.0382 178.273 29.0382C178.349 29.0382 178.425 29.0382 178.502 29.0382C178.54 29.0382 178.431 29.0674 178.395 29.0805C178.161 29.166 177.928 29.2531 177.699 29.351C177.338 29.505 176.961 29.6298 176.591 29.7626C176.492 29.798 176.39 29.8247 176.289 29.8508C176.161 29.8837 176.287 29.8561 176.351 29.8425C176.866 29.7328 177.362 29.5055 177.88 29.4192" stroke="#D42D2D" stroke-width="1.68" stroke-linecap="round"/>
<path d="M165.773 30.7315C164.582 30.7315 168.155 30.7315 169.346 30.7315C169.883 30.7315 170.432 30.765 170.964 30.6786C171.145 30.6493 171.308 30.6169 171.488 30.6468" stroke="#D42D2D" stroke-width="1.68" stroke-linecap="round"/>
<path d="M162.937 30.1177C161.096 30.1177 166.617 30.1177 168.457 30.1177C168.914 30.1177 167.55 30.0119 167.094 29.9836C166.297 29.9342 165.658 29.9195 164.846 29.9037C164.379 29.8946 163.912 29.8911 163.444 29.8837C163.224 29.8802 161.829 29.8704 161.423 29.8214C161.387 29.817 161.297 29.7682 161.333 29.7602C161.55 29.7113 161.776 29.7068 161.998 29.692C163.211 29.6114 164.432 29.6074 165.646 29.6591C166.057 29.6766 166.467 29.71 166.876 29.7626C166.93 29.7696 166.984 29.7811 167.038 29.7908C167.119 29.8053 167.086 29.8028 167.012 29.7861C166.647 29.7034 166.29 29.5885 165.929 29.4909C165.655 29.417 165.355 29.3872 165.088 29.2922C164.967 29.2489 165.346 29.271 165.475 29.271C166.372 29.271 167.271 29.2568 168.167 29.3016C168.675 29.327 169.183 29.3877 169.681 29.4874C169.818 29.5148 169.781 29.526 169.667 29.5156C169.435 29.4945 169.204 29.4621 168.975 29.4204C168.954 29.4167 168.645 29.3552 168.83 29.391C169.693 29.558 170.532 29.8497 171.388 30.0495C171.545 30.0861 171.703 30.1172 171.859 30.1553C171.881 30.1607 171.814 30.1581 171.791 30.1565C171.431 30.1307 171.075 30.0764 170.721 30.0072C170.52 29.9679 170.224 29.9654 170.04 29.8649C169.999 29.8425 170.066 29.8447 170.079 29.8437C170.356 29.8227 170.639 29.8288 170.916 29.8261C171.261 29.8226 171.576 29.8219 171.92 29.8214C172.029 29.8212 172.138 29.8214 172.247 29.8214C172.317 29.8214 172.517 29.8489 172.455 29.8178C172.384 29.7823 172.298 29.7953 172.219 29.7849C171.971 29.7521 171.724 29.7149 171.476 29.6826C171.204 29.6472 170.932 29.6211 170.661 29.5791C170.476 29.5504 170.306 29.4817 170.127 29.4298C169.921 29.37 169.737 29.3769 169.52 29.3769C169.401 29.3769 169.281 29.3769 169.162 29.3769C169.134 29.3769 169.057 29.3772 169.079 29.3604C169.138 29.3166 169.319 29.329 169.382 29.3251C169.595 29.3118 169.809 29.3134 170.022 29.3134C170.473 29.3134 170.924 29.3134 171.375 29.3134C171.718 29.3134 172.048 29.3952 172.388 29.398C172.587 29.3997 172.793 29.3805 172.988 29.4239C173.173 29.4651 173.36 29.4827 173.55 29.4827C173.921 29.4827 174.293 29.4743 174.661 29.5027C174.767 29.5108 174.858 29.5364 174.959 29.5674C175.046 29.5942 175.179 29.6114 175.254 29.6638C175.362 29.7394 175.439 29.8195 175.273 29.886C174.987 30.0003 174.715 30.0057 174.419 30.0648C173.852 30.1782 173.269 30.199 172.703 30.3246C172.547 30.3594 172.402 30.4135 172.252 30.4728C171.997 30.5733 172.285 30.5416 172.4 30.5457C172.837 30.5614 173.313 30.6183 173.737 30.4893C174.033 30.3991 174.316 30.2788 174.625 30.2365C174.888 30.2005 175.159 30.154 175.423 30.14C175.533 30.1343 175.642 30.0965 175.749 30.0965C175.778 30.0965 175.691 30.1055 175.662 30.1106C175.28 30.1784 174.902 30.2671 174.521 30.3435C173.754 30.4975 172.988 30.6706 172.214 30.7903C171.719 30.8669 171.24 31.01 170.752 31.1172C170.316 31.2127 169.868 31.2382 169.427 31.3077C168.956 31.3821 168.475 31.4147 168 31.4512C167.294 31.5053 166.589 31.488 165.881 31.4935C165.464 31.4967 165.037 31.4955 164.62 31.5158C164.406 31.5263 164.194 31.5806 163.982 31.6099C163.624 31.6595 163.265 31.7038 162.906 31.7487C162.273 31.8278 161.628 31.8936 161.022 32.0955C160.957 32.1172 161.009 32.1077 161.05 32.1073C161.258 32.1052 161.467 32.0938 161.674 32.0756C162.008 32.046 162.351 32.02 162.683 31.9674C162.962 31.9231 163.229 31.8537 163.513 31.8368C163.793 31.8202 164.077 31.8354 164.355 31.7851C164.64 31.7335 164.932 31.6852 165.213 31.6158C165.451 31.557 165.683 31.4668 165.923 31.4182C166.122 31.3781 166.324 31.3661 166.521 31.3147C166.69 31.2706 166.859 31.2376 167.033 31.2207C167.066 31.2175 167.072 31.215 167.044 31.2254C166.95 31.2605 166.858 31.2978 166.765 31.3359C166.425 31.4761 166.096 31.5904 165.74 31.6793C165.685 31.693 165.643 31.7143 165.625 31.7686" stroke="#D42D2D" stroke-width="1.68" stroke-linecap="round"/>
<path d="M147.944 29.3744C151.324 29.3785 154.716 29.3204 158.095 29.4376C158.858 29.464 159.547 29.5577 160.288 29.6983C160.823 29.7997 161.357 29.8937 161.874 30.066" stroke="#D42D2D" stroke-width="1.68" stroke-linecap="round"/>
<path d="M161.775 30.1154C161.047 30.1154 160.317 30.1363 159.594 30.033C158.842 29.9256 158.118 29.787 157.354 29.7723C156.679 29.7594 155.987 29.8239 155.315 29.7476C154.835 29.693 154.245 29.5482 153.823 29.3031C153.721 29.2441 153.558 29.1468 153.79 29.111C154.17 29.0521 154.873 29.077 155.156 29.0863C156.49 29.13 157.46 29.1951 158.823 29.3772C160.732 29.6322 162.612 30.0248 164.448 30.6093C165.843 31.0533 164.153 30.7176 164.078 30.7054C162.219 30.4028 160.351 30.1409 158.515 29.7202" stroke="#D42D2D" stroke-width="1.68" stroke-linecap="round"/>
<path d="M155.552 28.2383C155.152 28.0443 154.703 28.0189 154.328 27.7553C153.833 27.4073 153.385 26.9985 152.887 26.6576C152.568 26.4392 152.263 26.039 151.896 25.9166" stroke="#D42D2D" stroke-width="1.68" stroke-linecap="round"/>
<path d="M151.501 28.7816C151.514 28.885 151.9 28.831 151.984 28.831C152.328 28.831 152.647 28.8062 152.956 28.9792C153.308 29.1767 153.626 29.4466 153.993 29.6159C154.126 29.6775 154.269 29.7145 154.405 29.7696C154.427 29.7786 154.486 29.8135 154.462 29.8135C154.294 29.8135 154.109 29.7583 153.949 29.7257C151.561 29.2393 149.094 28.9306 146.655 29.1384C146.369 29.1628 145.356 29.3262 145.823 29.8464C145.934 29.9693 146.032 30.0111 146.194 30.0742C146.725 30.2812 147.305 30.4064 147.862 30.516C149.441 30.827 151.055 30.8504 152.659 30.8563C153.961 30.8611 155.328 31.0174 156.581 30.6148C157.021 30.4735 157.469 30.5105 157.925 30.5105C158.518 30.5105 159.107 30.4999 159.696 30.5819C160.004 30.6249 161.174 30.9357 161.452 30.5791C161.606 30.3815 161.439 29.8954 161.295 29.7421C160.767 29.1792 159.959 28.7264 159.24 28.4578C158.812 28.298 158.406 28.1327 157.947 28.0901C157.505 28.0489 157.02 28.0937 156.589 27.9913C155.783 27.7999 155.006 27.4033 154.245 27.0774C154.048 26.9929 153.882 26.8554 153.677 26.7838C153.416 26.6922 153.167 26.6503 152.923 26.5094C152.562 26.3015 152.564 26.1958 152.486 25.848C152.467 25.7615 152.179 25.725 152.105 25.6587C151.985 25.5509 151.701 25.6618 151.57 25.6998C151.103 25.8347 150.689 26.1119 150.233 26.2789C150.069 26.3393 149.929 26.3796 149.772 26.46C149.079 26.8163 148.301 26.7292 147.577 26.932C147.17 27.046 146.737 27.3243 146.314 27.3491C145.792 27.3799 145.171 27.4684 144.684 27.6455" stroke="#D42D2D" stroke-width="2.8" stroke-linecap="round"/>
<path d="M144.437 27.6455C145.696 27.8005 146.998 27.6949 148.263 27.6949C149.487 27.6949 150.724 27.641 151.946 27.7443C152.538 27.7944 153.101 27.8107 153.625 28.0901" stroke="#D42D2D" stroke-width="2.8" stroke-linecap="round"/>
<path d="M140.436 27.6455C140.436 27.0048 140.461 26.3471 140.362 25.7136C140.351 25.6429 140.277 25.3001 140.348 25.2361C140.45 25.1449 140.854 25.3077 140.958 25.3541C141.351 25.5303 141.639 25.8757 142.017 26.0648C142.46 26.2863 142.833 26.5402 143.312 26.696C143.777 26.8471 144.24 27.0043 144.706 27.1516C144.877 27.2054 145.059 27.2564 145.214 27.3491C145.417 27.4708 144.818 27.6344 144.586 27.6785C142.302 28.1112 139.941 28.3865 137.615 28.3865C137.578 28.3865 137.476 28.3796 137.508 28.3618C137.678 28.2672 138.085 28.3427 138.246 28.3481C139.968 28.4056 141.648 28.723 143.359 28.8914C144.229 28.9771 145.105 28.9911 145.969 29.1274" stroke="#D42D2D" stroke-width="2.8" stroke-linecap="round"/>
<path d="M131.693 26.3612C130.119 26.3612 134.844 26.3411 136.413 26.4572C138.455 26.6084 140.445 26.9895 142.461 27.2997" stroke="#D42D2D" stroke-width="2.8" stroke-linecap="round"/>
<path d="M131.298 26.5094C132.001 26.5094 132.705 26.5094 133.408 26.5094C134.563 26.5094 135.717 26.2007 136.849 25.9962C137.731 25.8369 138.606 25.6202 139.497 25.6202" stroke="#D42D2D" stroke-width="2.8" stroke-linecap="round"/>
<path d="M128.383 27.3986C129.355 27.3986 130.327 27.4424 131.298 27.5001C132.817 27.5905 134.389 27.6899 135.861 28.0956C137.509 28.5495 139.151 29.0263 140.793 29.4979C142.088 29.8699 143.388 30.2017 144.734 30.2746C145.406 30.311 146.064 30.4894 146.732 30.5709C147.529 30.6684 148.331 30.7214 149.13 30.8069" stroke="#D42D2D" stroke-width="2.8" stroke-linecap="round"/>
<path d="M131.989 28.7322C131.956 28.7616 131.877 28.7816 131.951 28.7816C132.18 28.7816 132.409 28.7798 132.637 28.8118C133.148 28.8838 133.741 29.0383 134.223 29.2372C134.975 29.5474 135.834 29.6723 136.63 29.819C137.34 29.9498 138.038 30.0265 138.757 30.0907C139.303 30.1395 139.806 30.3069 140.343 30.4117C140.927 30.5258 141.519 30.4996 142.107 30.5819C143.486 30.7749 144.873 30.8048 146.265 30.8563" stroke="#D42D2D" stroke-width="2.8" stroke-linecap="round"/>
<path d="M139.3 30.4611C139.072 30.5685 138.722 30.5179 138.51 30.4117" stroke="#D42D2D" stroke-width="2.8" stroke-linecap="round"/>
<path d="M133.767 29.5721C134.272 29.5721 132.701 29.5938 132.275 29.3251C132.031 29.1714 131.768 29.0313 131.484 28.9683C131.195 28.904 130.879 28.7482 130.584 28.7323C130.212 28.7122 129.849 28.5206 129.475 28.4743C129.031 28.4195 128.643 28.2681 128.224 28.1286C127.668 27.9431 127.095 27.6203 126.523 27.5084C126.029 27.4117 125.542 27.3386 125.063 27.19C124.645 27.0604 124.22 26.8408 123.8 26.7454C123.633 26.7075 123.454 26.6082 123.284 26.6082C123.153 26.6082 123.032 26.5588 122.922 26.5588C122.709 26.5588 123.35 26.6262 123.542 26.718C123.871 26.8744 124.205 27.0187 124.541 27.1626C124.983 27.3518 125.208 27.3267 125.666 27.2504" stroke="#D42D2D" stroke-width="2.8" stroke-linecap="round"/>
<path d="M125.123 27.1022C125.117 27.0577 124.646 26.8237 124.58 26.7811C124.473 26.7125 124.418 26.6082 124.283 26.6082C124.241 26.6082 124.162 26.6141 124.146 26.5588C124.114 26.451 124.816 26.391 124.832 26.3886C125.725 26.2601 126.573 26.213 127.472 26.213C127.863 26.213 128.197 26.3312 128.578 26.3585C129.569 26.4293 130.557 26.2624 131.545 26.2624" stroke="#D42D2D" stroke-width="2.8" stroke-linecap="round"/>
<path d="M122.802 27.1516C123.575 27.1516 124.333 27.324 125.079 27.5248C125.439 27.6215 125.818 27.751 126.171 27.8733C126.461 27.9736 126.745 28.0676 127.044 28.1367C127.24 28.1818 127.436 28.2178 127.637 28.2273C129.332 28.3072 131.034 28.3148 132.73 28.3865" stroke="#D42D2D" stroke-width="2.8" stroke-linecap="round"/>
<path d="M144.289 31.1527C143.921 31.1527 143.494 31.0812 143.153 31.2515C142.963 31.3462 143.436 31.3618 143.449 31.364C144.463 31.5435 145.467 31.6591 146.495 31.7181C147.469 31.7739 148.448 31.8443 149.424 31.8443C149.679 31.8443 149.917 31.8579 150.167 31.8937" stroke="#D42D2D" stroke-width="2.8" stroke-linecap="round"/>
<path d="M151.797 31.7949C154.844 31.7949 157.891 31.6961 160.936 31.6961" stroke="#D42D2D" stroke-width="2.8" stroke-linecap="round"/>
<path d="M168 29.325C167.083 29.325 166.04 29.4576 165.14 29.2619C164.257 29.0698 163.489 28.5192 162.58 28.3892C161.657 28.2574 160.714 28.4095 159.8 28.2767C158.7 28.1171 157.749 27.7651 156.729 27.3245C156.275 27.1284 155.776 27.1113 155.305 26.9787C154.938 26.8756 154.584 26.7421 154.221 26.6329C153.947 26.5508 153.7 26.4416 153.439 26.3338C153.199 26.2349 152.875 26.1545 152.687 25.9661C152.55 25.8296 152.818 25.8673 152.89 25.8673C153.281 25.8673 153.665 25.9564 153.998 26.1636C154.964 26.7628 156.162 26.9758 157.22 27.3492C158.107 27.6622 159.154 27.5696 159.997 27.9913" stroke="#D42D2D" stroke-width="2.8" stroke-linecap="round"/>
<path d="M122.258 26.5094C121.987 26.5094 121.71 26.5276 121.443 26.482C121.112 26.4255 120.801 26.3004 120.469 26.2514C119.933 26.1724 119.477 25.9846 118.948 25.8672" stroke="#D42D2D" stroke-width="2.8" stroke-linecap="round"/>
<path d="M113.552 24.3219C113.548 24.2849 113.526 24.2894 113.608 24.308C113.999 24.3972 114.39 24.5165 114.769 24.6479C115.08 24.7554 115.379 24.8872 115.693 24.989C116.09 25.1178 116.471 25.272 116.875 25.3822C117.247 25.4838 117.619 25.5671 117.982 25.7031C118.172 25.7745 118.373 25.7675 118.574 25.783" stroke="#D42D2D" stroke-width="1.68" stroke-linecap="round"/>
<path d="M117.798 25.2122C117.798 25.1306 117.752 25.0656 117.752 24.9839" stroke="#D42D2D" stroke-width="1.68" stroke-linecap="round"/>
<path d="M138.4 15.2V48.8H124.8V15.2H138.4Z" fill="#EFE5E5"/>
<path d="M168.4 15.2V48.8H154.8V15.2H168.4Z" fill="#EFE5E5"/>
</svg>
