<svg width="1180" height="773" viewBox="0 0 1180 773" fill="none" xmlns="http://www.w3.org/2000/svg">
<path d="M1179.53 386.499C1179.53 772.599 1179.53 772.599 590.15 772.599C0.770166 772.599 0.77002 772.599 0.77002 386.499C0.77002 0.399414 0.77002 0.399414 590.15 0.399414C1179.53 0.399414 1179.53 0.399414 1179.53 386.499Z" fill="#161616"/>
<path d="M356.533 249.704C353.647 258.721 355.721 270.737 355.721 280.178C355.721 284.234 355.663 288.295 355.721 292.35C355.8 297.832 367.902 295.158 371.5 295.145C378.837 295.118 385.872 294.957 393.048 293.522" stroke="#CCFF00" stroke-width="4" stroke-linecap="round"/>
<path d="M395.482 242.401C395.482 267.055 394.658 291.769 397.105 316.243" stroke="#CCFF00" stroke-width="4" stroke-linecap="round"/>
<path d="M397.105 277.293C397.51 275.676 406.925 276.611 409.277 275.67" stroke="#CCFF00" stroke-width="4" stroke-linecap="round"/>
<path d="M425.506 244.835C426.407 242.434 442.679 244.024 444.891 244.024C452.051 244.024 460.002 244.935 466.89 243.212" stroke="#CCFF00" stroke-width="4" stroke-linecap="round"/>
<path d="M424.695 243.212C424.695 253.037 424.74 263.033 425.506 272.605C425.92 277.776 457.734 272.425 466.89 272.425" stroke="#CCFF00" stroke-width="4" stroke-linecap="round"/>
<path d="M444.981 275.67C444.981 282.12 443.109 291.401 445.792 296.768" stroke="#CCFF00" stroke-width="4" stroke-linecap="round"/>
<path d="M423.072 296.768H485.554" stroke="#CCFF00" stroke-width="4" stroke-linecap="round"/>
<path d="M567.511 250.515C567.511 243.543 567.511 264.46 567.511 271.433C567.511 273.22 567.487 274.477 568.142 276.031C568.87 277.76 567.652 278.849 570.215 278.916C577.127 279.098 584.062 278.802 590.953 278.285C598.11 277.748 599.613 277.801 599.518 269.179C599.493 266.882 597.46 239.843 596.723 240.147C593.52 241.466 590.111 241.65 586.985 243.212C583.554 244.928 579.862 245.737 576.437 247.45C575.013 248.162 573.171 248.892 571.568 248.892" stroke="#CCFF00" stroke-width="4" stroke-linecap="round"/>
<path d="M611.329 229.417C611.329 244.79 611.329 260.163 611.329 275.535C611.329 277.837 609.939 287.553 612.14 288.654" stroke="#CCFF00" stroke-width="4" stroke-linecap="round"/>
<path d="M632.427 231.041C632.816 232.598 639.181 231.852 640.541 231.852" stroke="#CCFF00" stroke-width="4" stroke-linecap="round"/>
<path d="M626.747 244.835C627.377 247.357 645.739 244.499 645.861 245.647C646.192 248.761 643.343 251.394 641.804 254.122C641.261 255.083 629.396 275.525 629.001 276.211C626.727 280.162 623.984 284.418 622.058 288.654C621.419 290.06 621.317 292.019 621.066 293.522" stroke="#CCFF00" stroke-width="4" stroke-linecap="round"/>
<path d="M633.238 273.236C639.686 273.236 646.829 273.566 651.902 278.105C654.044 280.022 657.336 282.892 660.016 283.785" stroke="#CCFF00" stroke-width="4" stroke-linecap="round"/>
<path d="M660.016 240.778H681.925" stroke="#CCFF00" stroke-width="4" stroke-linecap="round"/>
<path d="M664.885 255.384H677.057" stroke="#CCFF00" stroke-width="4" stroke-linecap="round"/>
<path d="M680.302 223.738C680.611 241.428 679.182 260.157 681.88 277.699C682.262 280.18 682.598 282.903 682.737 285.408C682.939 289.041 685.171 293.01 685.171 296.768" stroke="#CCFF00" stroke-width="4" stroke-linecap="round"/>
<path d="M705.457 226.983C705.291 225.483 704.646 225.522 704.646 227.118C704.646 230.92 704.646 234.722 704.646 238.524C704.646 244.59 703.031 253.276 704.826 259.261C705.218 260.568 706.027 262.687 707.576 262.687C716.637 262.687 725.699 262.687 734.76 262.687C736.056 262.687 752.241 263.826 752.477 262.056C752.883 259.006 751.605 253.144 751.259 250.786C749.444 238.387 746.896 226.253 744.407 214" stroke="#CCFF00" stroke-width="4" stroke-linecap="round"/>
<path d="M709.515 240.778H748.464" stroke="#CCFF00" stroke-width="4" stroke-linecap="round"/>
<path d="M732.235 261.876V283.785" stroke="#CCFF00" stroke-width="4" stroke-linecap="round"/>
<path d="M703.835 290.277H752.522" stroke="#CCFF00" stroke-width="4" stroke-linecap="round"/>
<path d="M782.545 224.549C782.779 222.681 790.424 223.737 791.652 223.737C796.054 223.737 802.047 221.685 803.283 226.803C805.336 235.312 807.96 243.687 810 252.183C810.526 254.376 810.946 256.341 810.946 258.63" stroke="#CCFF00" stroke-width="4" stroke-linecap="round"/>
<path d="M784.98 257.819C784.98 253.821 784.891 265.814 784.98 269.81C785.08 274.314 786.707 277.301 788.226 281.351" stroke="#CCFF00" stroke-width="4" stroke-linecap="round"/>
<path d="M773.62 283.785H824.741" stroke="#CCFF00" stroke-width="4" stroke-linecap="round"/>
<path d="M495.129 343.072C495.129 350.367 495.472 357.739 495.088 365.021C494.741 371.623 491.477 377.184 491.477 383.969" stroke="#CCFF00" stroke-width="3.6" stroke-linecap="round"/>
<path d="M493.668 367.902C498.618 367.902 503.568 367.902 508.518 367.902C514.464 367.902 518.718 370.579 523.611 373.745" stroke="#CCFF00" stroke-width="3.6" stroke-linecap="round"/>
<path d="M525.802 347.454C525.802 353.491 524.524 360.874 525.843 366.807C526.489 369.716 527.648 372.537 528.561 375.368C529.79 379.178 529.86 383.322 531.644 386.89" stroke="#CCFF00" stroke-width="3.6" stroke-linecap="round"/>
<path d="M497.32 403.687H547.711" stroke="#CCFF00" stroke-width="3.6" stroke-linecap="round"/>
<path d="M516.308 408.799C514.009 411.385 515.577 418.72 515.577 421.945" stroke="#CCFF00" stroke-width="3.6" stroke-linecap="round"/>
<path d="M533.835 405.878V416.102" stroke="#CCFF00" stroke-width="3.6" stroke-linecap="round"/>
<path d="M492.208 424.135H556.475" stroke="#CCFF00" stroke-width="3.6" stroke-linecap="round"/>
<path d="M595.181 359.869C594.723 358.036 577.571 359.017 574.895 359.139C572.522 359.246 573.291 361.777 573.353 363.561C573.55 369.224 573.758 374.474 574.083 380.196C574.184 381.956 573.402 396.164 577.491 397.683C580.637 398.851 587.309 396.545 590.799 396.425C593.474 396.333 596.156 396.384 598.833 396.384" stroke="#CCFF00" stroke-width="3.6" stroke-linecap="round"/>
<path d="M617.821 348.914V434.36" stroke="#CCFF00" stroke-width="3.6" stroke-linecap="round"/>
<path d="M616.36 378.857C617.26 377.056 624.521 378.126 626.016 378.126C631.318 378.126 636.619 378.126 641.921 378.126" stroke="#CCFF00" stroke-width="3.6" stroke-linecap="round"/>
<path d="M405.43 568.48H394.87V577.664H393.366V568.48H382.87V567.136H405.43V568.48ZM402.39 563.264H385.942V553.408H402.39V563.264ZM387.414 561.984H400.918V554.72H387.414V561.984ZM426.626 570.976H425.09V560.544H419.394C419.223 562.208 418.562 563.552 417.41 564.576C416.279 565.6 414.861 566.112 413.154 566.112C411.938 566.112 410.85 565.845 409.89 565.312C408.93 564.779 408.173 564.043 407.618 563.104C407.085 562.144 406.818 561.056 406.818 559.84C406.818 558.624 407.085 557.547 407.618 556.608C408.173 555.669 408.93 554.933 409.89 554.4C410.85 553.867 411.938 553.6 413.154 553.6C414.882 553.6 416.322 554.123 417.474 555.168C418.626 556.192 419.266 557.547 419.394 559.232H425.09V551.872H426.626V570.976ZM427.426 577.024H411.074V568.992H412.61V575.648H427.426V577.024ZM413.154 555.008C412.237 555.008 411.405 555.221 410.658 555.648C409.933 556.053 409.357 556.629 408.93 557.376C408.525 558.101 408.322 558.923 408.322 559.84C408.322 561.248 408.77 562.411 409.666 563.328C410.583 564.245 411.746 564.704 413.154 564.704C414.05 564.704 414.861 564.491 415.586 564.064C416.333 563.637 416.909 563.061 417.314 562.336C417.741 561.589 417.954 560.757 417.954 559.84C417.954 558.944 417.741 558.133 417.314 557.408C416.909 556.661 416.333 556.075 415.586 555.648C414.861 555.221 414.05 555.008 413.154 555.008ZM448.814 562.688H453.102V564H448.814V577.664H447.342V551.872H448.814V562.688ZM442.542 554.688C442.542 558.379 441.593 561.781 439.694 564.896C437.795 568.011 434.947 570.539 431.15 572.48L430.318 571.264C433.625 569.557 436.185 567.392 437.998 564.768C439.833 562.123 440.846 559.221 441.038 556.064H431.342V554.688H442.542ZM474.394 577.696H472.89V551.872H474.394V577.696ZM469.53 576.288H468.026V563.552H464.282C464.197 566.048 463.674 568.032 462.714 569.504C461.775 570.976 460.538 571.712 459.002 571.712C457.957 571.712 457.039 571.36 456.25 570.656C455.461 569.931 454.842 568.907 454.394 567.584C453.967 566.261 453.754 564.725 453.754 562.976C453.754 561.205 453.967 559.669 454.394 558.368C454.842 557.045 455.461 556.032 456.25 555.328C457.039 554.603 457.957 554.24 459.002 554.24C460.517 554.24 461.754 554.955 462.714 556.384C463.674 557.813 464.197 559.755 464.282 562.208H468.026V552.544H469.53V576.288ZM459.002 555.648C458.255 555.648 457.594 555.957 457.018 556.576C456.442 557.195 455.994 558.059 455.674 559.168C455.375 560.277 455.226 561.547 455.226 562.976C455.226 564.405 455.375 565.675 455.674 566.784C455.994 567.872 456.442 568.725 457.018 569.344C457.594 569.963 458.255 570.272 459.002 570.272C460.154 570.272 461.071 569.6 461.754 568.256C462.458 566.912 462.81 565.152 462.81 562.976C462.81 560.8 462.458 559.04 461.754 557.696C461.071 556.331 460.154 555.648 459.002 555.648ZM495.386 570.976H484.218V554.528H495.386V570.976ZM485.754 569.664H493.914V555.84H485.754V569.664ZM502.874 577.696H501.37V551.872H502.874V577.696ZM526.438 571.072H524.902V551.872H526.438V571.072ZM527.27 577.024H510.79V569.152H512.326V575.648H527.27V577.024ZM514.854 557.856C514.854 559.051 515.153 560.192 515.75 561.28C516.348 562.368 517.137 563.317 518.118 564.128C519.121 564.939 520.209 565.547 521.382 565.952L520.614 567.232C519.142 566.677 517.82 565.856 516.646 564.768C515.494 563.68 514.652 562.432 514.118 561.024C513.606 562.56 512.774 563.915 511.622 565.088C510.47 566.24 509.158 567.104 507.686 567.68L506.886 566.432C508.06 566.005 509.137 565.365 510.118 564.512C511.121 563.637 511.91 562.624 512.486 561.472C513.084 560.32 513.382 559.115 513.382 557.856V556.96H507.334V555.584H513.382V552H514.886V555.584H520.838V556.96H514.854V557.856ZM537.618 559.392C537.618 560.821 537.938 562.272 538.578 563.744C539.218 565.195 540.05 566.507 541.074 567.68C542.098 568.832 543.165 569.696 544.274 570.272L543.282 571.52C541.917 570.773 540.648 569.632 539.474 568.096C538.301 566.56 537.437 564.875 536.882 563.04C536.349 564.96 535.485 566.741 534.29 568.384C533.096 570.005 531.816 571.221 530.45 572.032L529.458 570.784C530.568 570.187 531.624 569.28 532.626 568.064C533.65 566.848 534.482 565.472 535.122 563.936C535.762 562.4 536.082 560.885 536.082 559.392V554.24H537.618V559.392ZM548.658 562.592H552.978V563.968H548.658V577.696H547.122V551.872H548.658V562.592ZM572.382 558.784H576.286V560.16H572.382V567.296H570.878V551.872H572.382V558.784ZM572.382 577.28H557.022V568.608H572.382V577.28ZM558.526 575.936H570.91V569.92H558.526V575.936ZM556.35 564.352C558.718 564.352 560.788 564.299 562.558 564.192C564.329 564.064 566.185 563.829 568.126 563.488L568.254 564.864C566.249 565.205 564.34 565.44 562.526 565.568C560.734 565.675 558.676 565.728 556.35 565.728H554.462V558.656H563.966V554.688H554.398V553.312H565.502V559.968H555.966V564.352H556.35ZM596.906 577.696H595.37V563.808H589.45V562.464H595.37V551.872H596.906V577.696ZM584.842 560.416C584.842 561.888 585.152 563.317 585.77 564.704C586.389 566.091 587.2 567.317 588.202 568.384C589.226 569.451 590.325 570.272 591.498 570.848L590.57 572.032C589.141 571.307 587.84 570.24 586.666 568.832C585.493 567.403 584.64 565.792 584.106 564C583.616 565.877 582.794 567.584 581.642 569.12C580.49 570.635 579.2 571.787 577.77 572.576L576.81 571.328C577.962 570.752 579.04 569.899 580.042 568.768C581.045 567.637 581.845 566.347 582.442 564.896C583.061 563.424 583.37 561.931 583.37 560.416V557.824H577.418V556.512H583.37V552.256H584.874V556.512H590.698V557.824H584.842V560.416ZM620.438 577.28H604.47V568.576H620.438V577.28ZM605.974 575.936H618.934V569.888H605.974V575.936ZM620.438 567.04H618.902V559.264H613.846V557.92H618.902V551.872H620.438V567.04ZM603.094 564.448C605.313 564.448 607.276 564.395 608.982 564.288C610.689 564.181 612.481 563.968 614.358 563.648L614.518 564.992C612.598 565.312 610.774 565.525 609.046 565.632C607.318 565.739 605.334 565.792 603.094 565.792H601.302V558.72H610.614V554.56H601.238V553.184H612.118V559.968H602.838V564.448H603.094ZM650.359 566.048H642.775V571.936H652.951V574.752H629.431V571.936H639.511V566.048H632.279V553.184H650.135V555.936H635.575V563.232H650.359V566.048ZM675.218 570.752H671.954V561.056H667.474V558.24H671.954V551.2H675.218V570.752ZM675.858 577.376H658.322V568.96H661.554V574.592H675.858V577.376ZM663.186 556.544C663.186 558.208 663.708 559.765 664.754 561.216C665.799 562.667 667.282 563.733 669.202 564.416L667.57 567.104C666.162 566.613 664.946 565.888 663.922 564.928C662.919 563.968 662.13 562.848 661.554 561.568C660.978 562.997 660.156 564.245 659.09 565.312C658.023 566.357 656.743 567.136 655.25 567.648L653.522 564.896C655.548 564.213 657.106 563.104 658.194 561.568C659.282 560.032 659.826 558.347 659.826 556.512V555.904H654.514V553.152H668.37V555.904H663.186V556.544ZM690.38 558.176H677.836V555.392H682.508V551.968H685.74V555.392H690.38V558.176ZM684.14 559.456C685.207 559.456 686.167 559.723 687.02 560.256C687.895 560.789 688.567 561.536 689.036 562.496C689.527 563.456 689.772 564.533 689.772 565.728C689.772 566.944 689.527 568.032 689.036 568.992C688.567 569.952 687.895 570.699 687.02 571.232C686.167 571.765 685.207 572.032 684.14 572.032C683.074 572.032 682.114 571.765 681.26 571.232C680.407 570.699 679.735 569.952 679.244 568.992C678.754 568.032 678.508 566.944 678.508 565.728C678.508 564.533 678.754 563.456 679.244 562.496C679.735 561.536 680.407 560.789 681.26 560.256C682.114 559.723 683.074 559.456 684.14 559.456ZM684.14 562.336C683.33 562.336 682.668 562.645 682.156 563.264C681.644 563.883 681.388 564.704 681.388 565.728C681.388 566.752 681.644 567.563 682.156 568.16C682.668 568.757 683.33 569.056 684.14 569.056C684.951 569.056 685.602 568.757 686.092 568.16C686.604 567.563 686.86 566.752 686.86 565.728C686.86 564.704 686.604 563.883 686.092 563.264C685.602 562.645 684.951 562.336 684.14 562.336ZM700.012 577.888H696.908V564.928H694.476V576.672H691.436V551.744H694.476V562.144H696.908V551.2H700.012V577.888ZM725.607 574.688H702.087V571.84H712.167V566.816H704.647V552.928H707.943V557.248H719.655V552.928H722.951V566.816H715.431V571.84H725.607V574.688ZM719.655 564.032V560.032H707.943V564.032H719.655ZM747.362 556.192C747.362 558.475 747.298 560.533 747.17 562.368C747.063 564.203 746.775 566.357 746.306 568.832L743.042 568.448C743.49 566.187 743.767 564.149 743.874 562.336C744.002 560.501 744.066 558.517 744.066 556.384H728.77V553.6H747.362V556.192ZM749.73 574.496H726.306V571.648H734.882V562.4H738.146V571.648H749.73V574.496ZM771.965 566.016H768.669V551.2H771.965V566.016ZM760.157 554.784C760.157 556.491 760.69 558.048 761.757 559.456C762.845 560.864 764.391 561.856 766.397 562.432L764.797 565.152C763.325 564.683 762.055 563.989 760.989 563.072C759.922 562.133 759.09 561.024 758.493 559.744C757.895 561.131 757.053 562.336 755.965 563.36C754.877 564.384 753.586 565.141 752.093 565.632L750.461 562.912C752.487 562.272 754.045 561.205 755.133 559.712C756.242 558.197 756.797 556.555 756.797 554.784V552.192H760.157V554.784ZM772.093 570.016H768.925V574.752H772.349V577.536H754.333V574.752H757.757V570.016H754.589V567.296H772.093V570.016ZM765.661 574.752V570.016H761.021V574.752H765.661ZM794.935 561.28H798.871V564.096H794.935V577.92H791.639V551.2H794.935V561.28ZM787.895 556.512H779.127V568.544C781.282 568.523 783.159 568.459 784.759 568.352C786.381 568.224 788.023 568 789.687 567.68L790.007 570.592C788.173 570.912 786.338 571.136 784.503 571.264C782.69 571.371 780.514 571.424 777.975 571.424H775.831V553.728H787.895V556.512Z" fill="#CCFF00"/>
<line x1="503" y1="500.5" x2="678" y2="500.5" stroke="#CCFF00"/>
</svg>
